<svg id="visual" viewBox="0 0 900 100" width="900" height="100" xmlns="http://www.w3.org/2000/svg" xmlns:xlink="http://www.w3.org/1999/xlink" version="1.1"><path d="M0 46L82 46L82 16L164 16L164 31L245 31L245 32L327 32L327 18L409 18L409 25L491 25L491 29L573 29L573 41L655 41L655 28L736 28L736 16L818 16L818 42L900 42L900 20L900 0L900 0L818 0L818 0L736 0L736 0L655 0L655 0L573 0L573 0L491 0L491 0L409 0L409 0L327 0L327 0L245 0L245 0L164 0L164 0L82 0L82 0L0 0Z" fill="#e67e22"></path><path d="M0 61L82 61L82 28L164 28L164 44L245 44L245 46L327 46L327 29L409 29L409 32L491 32L491 43L573 43L573 50L655 50L655 37L736 37L736 28L818 28L818 51L900 51L900 31L900 18L900 40L818 40L818 14L736 14L736 26L655 26L655 39L573 39L573 27L491 27L491 23L409 23L409 16L327 16L327 30L245 30L245 29L164 29L164 14L82 14L82 44L0 44Z" fill="#f78c57"></path><path d="M0 73L82 73L82 45L164 45L164 54L245 54L245 60L327 60L327 54L409 54L409 60L491 60L491 57L573 57L573 65L655 65L655 47L736 47L736 45L818 45L818 73L900 73L900 47L900 29L900 49L818 49L818 26L736 26L736 35L655 35L655 48L573 48L573 41L491 41L491 30L409 30L409 27L327 27L327 44L245 44L245 42L164 42L164 26L82 26L82 59L0 59Z" fill="#ff9e83"></path><path d="M0 90L82 90L82 82L164 82L164 81L245 81L245 92L327 92L327 83L409 83L409 88L491 88L491 82L573 82L573 92L655 92L655 88L736 88L736 80L818 80L818 93L900 93L900 83L900 45L900 71L818 71L818 43L736 43L736 45L655 45L655 63L573 63L573 55L491 55L491 58L409 58L409 52L327 52L327 58L245 58L245 52L164 52L164 43L82 43L82 71L0 71Z" fill="#ffb4aa"></path><path d="M0 101L82 101L82 101L164 101L164 101L245 101L245 101L327 101L327 101L409 101L409 101L491 101L491 101L573 101L573 101L655 101L655 101L736 101L736 101L818 101L818 101L900 101L900 101L900 81L900 91L818 91L818 78L736 78L736 86L655 86L655 90L573 90L573 80L491 80L491 86L409 86L409 81L327 81L327 90L245 90L245 79L164 79L164 80L82 80L82 88L0 88Z" fill="#ffcccc"></path></svg>