<svg id="visual" viewBox="0 0 960 100" width="960" height="100" xmlns="http://www.w3.org/2000/svg" xmlns:xlink="http://www.w3.org/1999/xlink" version="1.1"><rect x="0" y="0" width="960" height="100" fill="#f1c40f"></rect><path d="M0 83L5.2 83.2C10.3 83.3 20.7 83.7 31 76.7C41.3 69.7 51.7 55.3 62 49.3C72.3 43.3 82.7 45.7 93 51.3C103.3 57 113.7 66 124 65.7C134.3 65.3 144.7 55.7 155 46.5C165.3 37.3 175.7 28.7 186 30C196.3 31.3 206.7 42.7 217 50C227.3 57.3 237.7 60.7 248 55.3C258.3 50 268.7 36 279 32C289.3 28 299.7 34 310 36.5C320.3 39 330.7 38 341 47.3C351.3 56.7 361.7 76.3 372 83.2C382.3 90 392.7 84 403 71.7C413.3 59.3 423.7 40.7 434 32C444.3 23.3 454.7 24.7 464.8 28C475 31.3 485 36.7 495.2 36.7C505.3 36.7 515.7 31.3 526 29.2C536.3 27 546.7 28 557 36.3C567.3 44.7 577.7 60.3 588 71.8C598.3 83.3 608.7 90.7 619 88.8C629.3 87 639.7 76 650 72.8C660.3 69.7 670.7 74.3 681 76.3C691.3 78.3 701.7 77.7 712 79.7C722.3 81.7 732.7 86.3 743 90C753.3 93.7 763.7 96.3 774 95.3C784.3 94.3 794.7 89.7 805 85C815.3 80.3 825.7 75.7 836 77.3C846.3 79 856.7 87 867 82.2C877.3 77.3 887.7 59.7 898 54.3C908.3 49 918.7 56 929 53.3C939.3 50.7 949.7 38.3 954.8 32.2L960 26L960 101L954.8 101C949.7 101 939.3 101 929 101C918.7 101 908.3 101 898 101C887.7 101 877.3 101 867 101C856.7 101 846.3 101 836 101C825.7 101 815.3 101 805 101C794.7 101 784.3 101 774 101C763.7 101 753.3 101 743 101C732.7 101 722.3 101 712 101C701.7 101 691.3 101 681 101C670.7 101 660.3 101 650 101C639.7 101 629.3 101 619 101C608.7 101 598.3 101 588 101C577.7 101 567.3 101 557 101C546.7 101 536.3 101 526 101C515.7 101 505.3 101 495.2 101C485 101 475 101 464.8 101C454.7 101 444.3 101 434 101C423.7 101 413.3 101 403 101C392.7 101 382.3 101 372 101C361.7 101 351.3 101 341 101C330.7 101 320.3 101 310 101C299.7 101 289.3 101 279 101C268.7 101 258.3 101 248 101C237.7 101 227.3 101 217 101C206.7 101 196.3 101 186 101C175.7 101 165.3 101 155 101C144.7 101 134.3 101 124 101C113.7 101 103.3 101 93 101C82.7 101 72.3 101 62 101C51.7 101 41.3 101 31 101C20.7 101 10.3 101 5.2 101L0 101Z" fill="#4cd137" stroke-linecap="round" stroke-linejoin="miter"></path></svg>