<svg id="visual" viewBox="0 0 960 540" width="960" height="540" xmlns="http://www.w3.org/2000/svg" xmlns:xlink="http://www.w3.org/1999/xlink" version="1.1"><rect x="0" y="0" width="960" height="540" fill="#4285f4"></rect><path d="M0 225L107 225L107 151L213 151L213 199L320 199L320 142L427 142L427 213L533 213L533 174L640 174L640 153L747 153L747 143L853 143L853 165L960 165L960 188L960 0L960 0L853 0L853 0L747 0L747 0L640 0L640 0L533 0L533 0L427 0L427 0L320 0L320 0L213 0L213 0L107 0L107 0L0 0Z" fill="#f974af"></path><path d="M0 128L107 128L107 141L213 141L213 103L320 103L320 155L427 155L427 137L533 137L533 131L640 131L640 128L747 128L747 99L853 99L853 148L960 148L960 102L960 0L960 0L853 0L853 0L747 0L747 0L640 0L640 0L533 0L533 0L427 0L427 0L320 0L320 0L213 0L213 0L107 0L107 0L0 0Z" fill="#ff9377"></path><path d="M0 73L107 73L107 50L213 50L213 68L320 68L320 41L427 41L427 88L533 88L533 46L640 46L640 66L747 66L747 87L853 87L853 66L960 66L960 70L960 0L960 0L853 0L853 0L747 0L747 0L640 0L640 0L533 0L533 0L427 0L427 0L320 0L320 0L213 0L213 0L107 0L107 0L0 0Z" fill="#feca57"></path></svg>