<svg id="visual" viewBox="0 0 900 100" width="900" height="100" xmlns="http://www.w3.org/2000/svg" xmlns:xlink="http://www.w3.org/1999/xlink" version="1.1"><rect x="0" y="0" width="900" height="100" fill="#002233"></rect><path d="M0 59L4.8 53.3C9.7 47.7 19.3 36.3 29 36.5C38.7 36.7 48.3 48.3 58 59.7C67.7 71 77.3 82 87 79C96.7 76 106.3 59 116 46.2C125.7 33.3 135.3 24.7 145 23.5C154.7 22.3 164.3 28.7 174 29.8C183.7 31 193.3 27 203 30.8C212.7 34.7 222.3 46.3 232 48.8C241.7 51.3 251.3 44.7 261 35.7C270.7 26.7 280.3 15.3 290 16.3C299.7 17.3 309.3 30.7 319 36.5C328.7 42.3 338.3 40.7 348 45C357.7 49.3 367.3 59.7 377 63.7C386.7 67.7 396.3 65.3 406 54.8C415.7 44.3 425.3 25.7 435.2 22C445 18.3 455 29.7 464.8 36.8C474.7 44 484.3 47 494 44.5C503.7 42 513.3 34 523 33.7C532.7 33.3 542.3 40.7 552 45.3C561.7 50 571.3 52 581 55C590.7 58 600.3 62 610 62.5C619.7 63 629.3 60 639 51.7C648.7 43.3 658.3 29.7 668 35.3C677.7 41 687.3 66 697 73.5C706.7 81 716.3 71 726 62.2C735.7 53.3 745.3 45.7 755 42.2C764.7 38.7 774.3 39.3 784 45.3C793.7 51.3 803.3 62.7 813 62.7C822.7 62.7 832.3 51.3 842 50.7C851.7 50 861.3 60 871 63.7C880.7 67.3 890.3 64.7 895.2 63.3L900 62L900 0L895.2 0C890.3 0 880.7 0 871 0C861.3 0 851.7 0 842 0C832.3 0 822.7 0 813 0C803.3 0 793.7 0 784 0C774.3 0 764.7 0 755 0C745.3 0 735.7 0 726 0C716.3 0 706.7 0 697 0C687.3 0 677.7 0 668 0C658.3 0 648.7 0 639 0C629.3 0 619.7 0 610 0C600.3 0 590.7 0 581 0C571.3 0 561.7 0 552 0C542.3 0 532.7 0 523 0C513.3 0 503.7 0 494 0C484.3 0 474.7 0 464.8 0C455 0 445 0 435.2 0C425.3 0 415.7 0 406 0C396.3 0 386.7 0 377 0C367.3 0 357.7 0 348 0C338.3 0 328.7 0 319 0C309.3 0 299.7 0 290 0C280.3 0 270.7 0 261 0C251.3 0 241.7 0 232 0C222.3 0 212.7 0 203 0C193.3 0 183.7 0 174 0C164.3 0 154.7 0 145 0C135.3 0 125.7 0 116 0C106.3 0 96.7 0 87 0C77.3 0 67.7 0 58 0C48.3 0 38.7 0 29 0C19.3 0 9.7 0 4.8 0L0 0Z" fill="#4285f4" stroke-linecap="round" stroke-linejoin="miter"></path></svg>