<svg id="visual" viewBox="0 0 4000 200" width="4000" height="200" xmlns="http://www.w3.org/2000/svg" xmlns:xlink="http://www.w3.org/1999/xlink" version="1.1"><rect x="0" y="0" width="4000" height="200" fill="#4285f4"></rect><path d="M0 72L133.3 73.2C266.7 74.3 533.3 76.7 800 88.3C1066.7 100 1333.3 121 1600 121.5C1866.7 122 2133.3 102 2400 94.8C2666.7 87.7 2933.3 93.3 3200 108.8C3466.7 124.3 3733.3 149.7 3866.7 162.3L4000 175L4000 201L3866.7 201C3733.3 201 3466.7 201 3200 201C2933.3 201 2666.7 201 2400 201C2133.3 201 1866.7 201 1600 201C1333.3 201 1066.7 201 800 201C533.3 201 266.7 201 133.3 201L0 201Z" fill="#002233" stroke-linecap="round" stroke-linejoin="miter"></path></svg>