<svg id="visual" viewBox="0 0 4000 200" width="4000" height="200" xmlns="http://www.w3.org/2000/svg" xmlns:xlink="http://www.w3.org/1999/xlink" version="1.1"><rect x="0" y="0" width="4000" height="200" fill="#743ad5"></rect><path d="M0 89L133.3 102C266.7 115 533.3 141 800 129.7C1066.7 118.3 1333.3 69.7 1600 65C1866.7 60.3 2133.3 99.7 2400 107.5C2666.7 115.3 2933.3 91.7 3200 75.7C3466.7 59.7 3733.3 51.3 3866.7 47.2L4000 43L4000 201L3866.7 201C3733.3 201 3466.7 201 3200 201C2933.3 201 2666.7 201 2400 201C2133.3 201 1866.7 201 1600 201C1333.3 201 1066.7 201 800 201C533.3 201 266.7 201 133.3 201L0 201Z" fill="#f1c40f" stroke-linecap="round" stroke-linejoin="miter"></path></svg>