<svg id="visual" viewBox="0 0 960 100" width="960" height="100" xmlns="http://www.w3.org/2000/svg" xmlns:xlink="http://www.w3.org/1999/xlink" version="1.1"><rect x="0" y="0" width="960" height="100" fill="#743ad5"></rect><path d="M0 79L5.2 75C10.3 71 20.7 63 31 60.8C41.3 58.7 51.7 62.3 62 57C72.3 51.7 82.7 37.3 93 41.8C103.3 46.3 113.7 69.7 124 82.3C134.3 95 144.7 97 155 89C165.3 81 175.7 63 186 50.2C196.3 37.3 206.7 29.7 217 25.7C227.3 21.7 237.7 21.3 248 30C258.3 38.7 268.7 56.3 279 56.7C289.3 57 299.7 40 310 35.5C320.3 31 330.7 39 341 49.7C351.3 60.3 361.7 73.7 372 81C382.3 88.3 392.7 89.7 403 87.8C413.3 86 423.7 81 434 69.2C444.3 57.3 454.7 38.7 464.8 31.7C475 24.7 485 29.3 495.2 34.3C505.3 39.3 515.7 44.7 526 45.2C536.3 45.7 546.7 41.3 557 40.7C567.3 40 577.7 43 588 47.2C598.3 51.3 608.7 56.7 619 56.8C629.3 57 639.7 52 650 52.8C660.3 53.7 670.7 60.3 681 68C691.3 75.7 701.7 84.3 712 80C722.3 75.7 732.7 58.3 743 50.2C753.3 42 763.7 43 774 52.2C784.3 61.3 794.7 78.7 805 79.7C815.3 80.7 825.7 65.3 836 55.7C846.3 46 856.7 42 867 48.5C877.3 55 887.7 72 898 70.2C908.3 68.3 918.7 47.7 929 40.2C939.3 32.7 949.7 38.3 954.8 41.2L960 44L960 101L954.8 101C949.7 101 939.3 101 929 101C918.7 101 908.3 101 898 101C887.7 101 877.3 101 867 101C856.7 101 846.3 101 836 101C825.7 101 815.3 101 805 101C794.7 101 784.3 101 774 101C763.7 101 753.3 101 743 101C732.7 101 722.3 101 712 101C701.7 101 691.3 101 681 101C670.7 101 660.3 101 650 101C639.7 101 629.3 101 619 101C608.7 101 598.3 101 588 101C577.7 101 567.3 101 557 101C546.7 101 536.3 101 526 101C515.7 101 505.3 101 495.2 101C485 101 475 101 464.8 101C454.7 101 444.3 101 434 101C423.7 101 413.3 101 403 101C392.7 101 382.3 101 372 101C361.7 101 351.3 101 341 101C330.7 101 320.3 101 310 101C299.7 101 289.3 101 279 101C268.7 101 258.3 101 248 101C237.7 101 227.3 101 217 101C206.7 101 196.3 101 186 101C175.7 101 165.3 101 155 101C144.7 101 134.3 101 124 101C113.7 101 103.3 101 93 101C82.7 101 72.3 101 62 101C51.7 101 41.3 101 31 101C20.7 101 10.3 101 5.2 101L0 101Z" fill="#f1c40f" stroke-linecap="round" stroke-linejoin="miter"></path></svg>