<svg id="visual" viewBox="0 0 900 100" width="900" height="100" xmlns="http://www.w3.org/2000/svg" xmlns:xlink="http://www.w3.org/1999/xlink" version="1.1"><rect x="0" y="0" width="900" height="100" fill="#ffcccc"></rect><path d="M0 10L39 10L39 17L78 17L78 36L117 36L117 28L157 28L157 25L196 25L196 31L235 31L235 26L274 26L274 11L313 11L313 25L352 25L352 14L391 14L391 12L430 12L430 8L470 8L470 5L509 5L509 12L548 12L548 8L587 8L587 4L626 4L626 22L665 22L665 29L704 29L704 4L743 4L743 33L783 33L783 10L822 10L822 38L861 38L861 7L900 7L900 26L900 101L900 101L861 101L861 101L822 101L822 101L783 101L783 101L743 101L743 101L704 101L704 101L665 101L665 101L626 101L626 101L587 101L587 101L548 101L548 101L509 101L509 101L470 101L470 101L430 101L430 101L391 101L391 101L352 101L352 101L313 101L313 101L274 101L274 101L235 101L235 101L196 101L196 101L157 101L157 101L117 101L117 101L78 101L78 101L39 101L39 101L0 101Z" fill="#ffc312"></path><path d="M0 38L39 38L39 14L78 14L78 48L117 48L117 27L157 27L157 19L196 19L196 29L235 29L235 36L274 36L274 39L313 39L313 44L352 44L352 26L391 26L391 41L430 41L430 30L470 30L470 22L509 22L509 48L548 48L548 44L587 44L587 32L626 32L626 36L665 36L665 25L704 25L704 23L743 23L743 29L783 29L783 44L822 44L822 23L861 23L861 17L900 17L900 18L900 101L900 101L861 101L861 101L822 101L822 101L783 101L783 101L743 101L743 101L704 101L704 101L665 101L665 101L626 101L626 101L587 101L587 101L548 101L548 101L509 101L509 101L470 101L470 101L430 101L430 101L391 101L391 101L352 101L352 101L313 101L313 101L274 101L274 101L235 101L235 101L196 101L196 101L157 101L157 101L117 101L117 101L78 101L78 101L39 101L39 101L0 101Z" fill="#ff9e40"></path><path d="M0 33L39 33L39 42L78 42L78 28L117 28L117 54L157 54L157 45L196 45L196 37L235 37L235 36L274 36L274 29L313 29L313 26L352 26L352 34L391 34L391 45L430 45L430 45L470 45L470 31L509 31L509 29L548 29L548 39L587 39L587 42L626 42L626 45L665 45L665 34L704 34L704 33L743 33L743 53L783 53L783 34L822 34L822 52L861 52L861 56L900 56L900 45L900 101L900 101L861 101L861 101L822 101L822 101L783 101L783 101L743 101L743 101L704 101L704 101L665 101L665 101L626 101L626 101L587 101L587 101L548 101L548 101L509 101L509 101L470 101L470 101L430 101L430 101L391 101L391 101L352 101L352 101L313 101L313 101L274 101L274 101L235 101L235 101L196 101L196 101L157 101L157 101L117 101L117 101L78 101L78 101L39 101L39 101L0 101Z" fill="#ff7e69"></path><path d="M0 49L39 49L39 37L78 37L78 49L117 49L117 62L157 62L157 64L196 64L196 54L235 54L235 45L274 45L274 56L313 56L313 61L352 61L352 38L391 38L391 55L430 55L430 48L470 48L470 59L509 59L509 55L548 55L548 61L587 61L587 59L626 59L626 51L665 51L665 53L704 53L704 54L743 54L743 51L783 51L783 47L822 47L822 42L861 42L861 50L900 50L900 56L900 101L900 101L861 101L861 101L822 101L822 101L783 101L783 101L743 101L743 101L704 101L704 101L665 101L665 101L626 101L626 101L587 101L587 101L548 101L548 101L509 101L509 101L470 101L470 101L430 101L430 101L391 101L391 101L352 101L352 101L313 101L313 101L274 101L274 101L235 101L235 101L196 101L196 101L157 101L157 101L117 101L117 101L78 101L78 101L39 101L39 101L0 101Z" fill="#ff6991"></path><path d="M0 55L39 55L39 49L78 49L78 66L117 66L117 49L157 49L157 55L196 55L196 53L235 53L235 70L274 70L274 62L313 62L313 66L352 66L352 50L391 50L391 57L430 57L430 62L470 62L470 49L509 49L509 72L548 72L548 48L587 48L587 61L626 61L626 71L665 71L665 57L704 57L704 58L743 58L743 62L783 62L783 58L822 58L822 65L861 65L861 63L900 63L900 61L900 101L900 101L861 101L861 101L822 101L822 101L783 101L783 101L743 101L743 101L704 101L704 101L665 101L665 101L626 101L626 101L587 101L587 101L548 101L548 101L509 101L509 101L470 101L470 101L430 101L430 101L391 101L391 101L352 101L352 101L313 101L313 101L274 101L274 101L235 101L235 101L196 101L196 101L157 101L157 101L117 101L117 101L78 101L78 101L39 101L39 101L0 101Z" fill="#f466b4"></path><path d="M0 62L39 62L39 70L78 70L78 63L117 63L117 59L157 59L157 81L196 81L196 77L235 77L235 71L274 71L274 61L313 61L313 60L352 60L352 59L391 59L391 67L430 67L430 66L470 66L470 67L509 67L509 71L548 71L548 75L587 75L587 80L626 80L626 80L665 80L665 61L704 61L704 68L743 68L743 76L783 76L783 71L822 71L822 67L861 67L861 72L900 72L900 69L900 101L900 101L861 101L861 101L822 101L822 101L783 101L783 101L743 101L743 101L704 101L704 101L665 101L665 101L626 101L626 101L587 101L587 101L548 101L548 101L509 101L509 101L470 101L470 101L430 101L430 101L391 101L391 101L352 101L352 101L313 101L313 101L274 101L274 101L235 101L235 101L196 101L196 101L157 101L157 101L117 101L117 101L78 101L78 101L39 101L39 101L0 101Z" fill="#d16ed3"></path><path d="M0 87L39 87L39 81L78 81L78 83L117 83L117 85L157 85L157 72L196 72L196 82L235 82L235 75L274 75L274 75L313 75L313 76L352 76L352 88L391 88L391 74L430 74L430 78L470 78L470 80L509 80L509 83L548 83L548 71L587 71L587 84L626 84L626 84L665 84L665 72L704 72L704 70L743 70L743 82L783 82L783 71L822 71L822 77L861 77L861 81L900 81L900 77L900 101L900 101L861 101L861 101L822 101L822 101L783 101L783 101L743 101L743 101L704 101L704 101L665 101L665 101L626 101L626 101L587 101L587 101L548 101L548 101L509 101L509 101L470 101L470 101L430 101L430 101L391 101L391 101L352 101L352 101L313 101L313 101L274 101L274 101L235 101L235 101L196 101L196 101L157 101L157 101L117 101L117 101L78 101L78 101L39 101L39 101L0 101Z" fill="#9b7ae9"></path><path d="M0 92L39 92L39 90L78 90L78 81L117 81L117 82L157 82L157 95L196 95L196 96L235 96L235 80L274 80L274 89L313 89L313 92L352 92L352 94L391 94L391 79L430 79L430 82L470 82L470 92L509 92L509 96L548 96L548 90L587 90L587 92L626 92L626 96L665 96L665 89L704 89L704 95L743 95L743 89L783 89L783 88L822 88L822 80L861 80L861 88L900 88L900 90L900 101L900 101L861 101L861 101L822 101L822 101L783 101L783 101L743 101L743 101L704 101L704 101L665 101L665 101L626 101L626 101L587 101L587 101L548 101L548 101L509 101L509 101L470 101L470 101L430 101L430 101L391 101L391 101L352 101L352 101L313 101L313 101L274 101L274 101L235 101L235 101L196 101L196 101L157 101L157 101L117 101L117 101L78 101L78 101L39 101L39 101L0 101Z" fill="#4285f4"></path></svg>