<svg id="visual" viewBox="0 0 900 100" width="900" height="100" xmlns="http://www.w3.org/2000/svg" xmlns:xlink="http://www.w3.org/1999/xlink" version="1.1"><rect x="0" y="0" width="900" height="100" fill="#002233"></rect><path d="M0 62L50 90L100 96L150 45L200 66L250 57L300 75L350 28L400 62L450 64L500 35L550 94L600 74L650 82L700 33L750 58L800 28L850 77L900 21L900 101L850 101L800 101L750 101L700 101L650 101L600 101L550 101L500 101L450 101L400 101L350 101L300 101L250 101L200 101L150 101L100 101L50 101L0 101Z" fill="#f5730a"></path><path d="M0 37L50 89L100 57L150 46L200 83L250 97L300 50L350 44L400 87L450 56L500 90L550 82L600 89L650 69L700 36L750 38L800 83L850 90L900 39L900 101L850 101L800 101L750 101L700 101L650 101L600 101L550 101L500 101L450 101L400 101L350 101L300 101L250 101L200 101L150 101L100 101L50 101L0 101Z" fill="#fa6823"></path><path d="M0 44L50 61L100 69L150 65L200 91L250 95L300 65L350 41L400 55L450 38L500 70L550 64L600 94L650 88L700 54L750 40L800 38L850 94L900 60L900 101L850 101L800 101L750 101L700 101L650 101L600 101L550 101L500 101L450 101L400 101L350 101L300 101L250 101L200 101L150 101L100 101L50 101L0 101Z" fill="#fe5c34"></path><path d="M0 81L50 53L100 56L150 73L200 46L250 44L300 66L350 40L400 79L450 79L500 66L550 40L600 46L650 88L700 40L750 62L800 90L850 83L900 44L900 101L850 101L800 101L750 101L700 101L650 101L600 101L550 101L500 101L450 101L400 101L350 101L300 101L250 101L200 101L150 101L100 101L50 101L0 101Z" fill="#ff5143"></path><path d="M0 49L50 56L100 57L150 48L200 58L250 54L300 66L350 53L400 98L450 48L500 84L550 59L600 74L650 62L700 98L750 77L800 93L850 59L900 93L900 101L850 101L800 101L750 101L700 101L650 101L600 101L550 101L500 101L450 101L400 101L350 101L300 101L250 101L200 101L150 101L100 101L50 101L0 101Z" fill="#ff4751"></path><path d="M0 52L50 56L100 74L150 71L200 83L250 65L300 64L350 73L400 58L450 87L500 69L550 70L600 75L650 81L700 74L750 54L800 96L850 86L900 75L900 101L850 101L800 101L750 101L700 101L650 101L600 101L550 101L500 101L450 101L400 101L350 101L300 101L250 101L200 101L150 101L100 101L50 101L0 101Z" fill="#fd3e5f"></path><path d="M0 69L50 95L100 87L150 82L200 84L250 88L300 78L350 95L400 93L450 87L500 72L550 88L600 95L650 81L700 74L750 79L800 67L850 66L900 72L900 101L850 101L800 101L750 101L700 101L650 101L600 101L550 101L500 101L450 101L400 101L350 101L300 101L250 101L200 101L150 101L100 101L50 101L0 101Z" fill="#f9376c"></path><path d="M0 80L50 76L100 83L150 82L200 99L250 93L300 88L350 77L400 93L450 77L500 91L550 95L600 77L650 79L700 77L750 97L800 83L850 71L900 68L900 101L850 101L800 101L750 101L700 101L650 101L600 101L550 101L500 101L450 101L400 101L350 101L300 101L250 101L200 101L150 101L100 101L50 101L0 101Z" fill="#f33379"></path><path d="M0 75L50 74L100 82L150 72L200 79L250 89L300 94L350 75L400 91L450 88L500 91L550 90L600 84L650 95L700 88L750 75L800 98L850 93L900 89L900 101L850 101L800 101L750 101L700 101L650 101L600 101L550 101L500 101L450 101L400 101L350 101L300 101L250 101L200 101L150 101L100 101L50 101L0 101Z" fill="#eb3386"></path><path d="M0 81L50 85L100 93L150 86L200 82L250 90L300 86L350 88L400 92L450 91L500 94L550 87L600 85L650 87L700 91L750 98L800 86L850 82L900 92L900 101L850 101L800 101L750 101L700 101L650 101L600 101L550 101L500 101L450 101L400 101L350 101L300 101L250 101L200 101L150 101L100 101L50 101L0 101Z" fill="#e13592"></path><path d="M0 97L50 87L100 98L150 93L200 89L250 86L300 97L350 96L400 98L450 88L500 93L550 94L600 95L650 97L700 95L750 92L800 98L850 96L900 89L900 101L850 101L800 101L750 101L700 101L650 101L600 101L550 101L500 101L450 101L400 101L350 101L300 101L250 101L200 101L150 101L100 101L50 101L0 101Z" fill="#d53a9d"></path></svg>