<svg id="visual" viewBox="0 0 4000 200" width="4000" height="200" xmlns="http://www.w3.org/2000/svg" xmlns:xlink="http://www.w3.org/1999/xlink" version="1.1"><rect x="0" y="0" width="4000" height="200" fill="#4cd137"></rect><path d="M0 160L133.3 161.5C266.7 163 533.3 166 800 148.2C1066.7 130.3 1333.3 91.7 1600 91.5C1866.7 91.3 2133.3 129.7 2400 131C2666.7 132.3 2933.3 96.7 3200 94.5C3466.7 92.3 3733.3 123.7 3866.7 139.3L4000 155L4000 201L3866.7 201C3733.3 201 3466.7 201 3200 201C2933.3 201 2666.7 201 2400 201C2133.3 201 1866.7 201 1600 201C1333.3 201 1066.7 201 800 201C533.3 201 266.7 201 133.3 201L0 201Z" fill="#e67e22" stroke-linecap="round" stroke-linejoin="miter"></path></svg>