<svg id="visual" viewBox="0 0 960 100" width="960" height="100" xmlns="http://www.w3.org/2000/svg" xmlns:xlink="http://www.w3.org/1999/xlink" version="1.1"><rect x="0" y="0" width="960" height="100" fill="#e67e22"></rect><path d="M0 68L5.2 57.3C10.3 46.7 20.7 25.3 31 16.8C41.3 8.3 51.7 12.7 62 17.8C72.3 23 82.7 29 93 29C103.3 29 113.7 23 124 17.2C134.3 11.3 144.7 5.7 155 15.8C165.3 26 175.7 52 186 58.3C196.3 64.7 206.7 51.3 217 46.3C227.3 41.3 237.7 44.7 248 51C258.3 57.3 268.7 66.7 279 71.3C289.3 76 299.7 76 310 71.3C320.3 66.7 330.7 57.3 341 54.5C351.3 51.7 361.7 55.3 372 49.3C382.3 43.3 392.7 27.7 403 23.8C413.3 20 423.7 28 434 33.5C444.3 39 454.7 42 464.8 47C475 52 485 59 495.2 61.8C505.3 64.7 515.7 63.3 526 60.5C536.3 57.7 546.7 53.3 557 44.3C567.3 35.3 577.7 21.7 588 25C598.3 28.3 608.7 48.7 619 51.5C629.3 54.3 639.7 39.7 650 37.2C660.3 34.7 670.7 44.3 681 43.8C691.3 43.3 701.7 32.7 712 33.8C722.3 35 732.7 48 743 44.5C753.3 41 763.7 21 774 21.2C784.3 21.3 794.7 41.7 805 52C815.3 62.3 825.7 62.7 836 59.7C846.3 56.7 856.7 50.3 867 40.8C877.3 31.3 887.7 18.7 898 13.8C908.3 9 918.7 12 929 14.2C939.3 16.3 949.7 17.7 954.8 18.3L960 19L960 0L954.8 0C949.7 0 939.3 0 929 0C918.7 0 908.3 0 898 0C887.7 0 877.3 0 867 0C856.7 0 846.3 0 836 0C825.7 0 815.3 0 805 0C794.7 0 784.3 0 774 0C763.7 0 753.3 0 743 0C732.7 0 722.3 0 712 0C701.7 0 691.3 0 681 0C670.7 0 660.3 0 650 0C639.7 0 629.3 0 619 0C608.7 0 598.3 0 588 0C577.7 0 567.3 0 557 0C546.7 0 536.3 0 526 0C515.7 0 505.3 0 495.2 0C485 0 475 0 464.8 0C454.7 0 444.3 0 434 0C423.7 0 413.3 0 403 0C392.7 0 382.3 0 372 0C361.7 0 351.3 0 341 0C330.7 0 320.3 0 310 0C299.7 0 289.3 0 279 0C268.7 0 258.3 0 248 0C237.7 0 227.3 0 217 0C206.7 0 196.3 0 186 0C175.7 0 165.3 0 155 0C144.7 0 134.3 0 124 0C113.7 0 103.3 0 93 0C82.7 0 72.3 0 62 0C51.7 0 41.3 0 31 0C20.7 0 10.3 0 5.2 0L0 0Z" fill="#4cd137" stroke-linecap="round" stroke-linejoin="miter"></path></svg>