<svg id="visual" viewBox="0 0 4000 200" width="4000" height="200" xmlns="http://www.w3.org/2000/svg" xmlns:xlink="http://www.w3.org/1999/xlink" version="1.1"><rect x="0" y="0" width="4000" height="200" fill="#f1c40f"></rect><path d="M0 108L133.3 107.5C266.7 107 533.3 106 800 103.8C1066.7 101.7 1333.3 98.3 1600 92C1866.7 85.7 2133.3 76.3 2400 79C2666.7 81.7 2933.3 96.3 3200 93.3C3466.7 90.3 3733.3 69.7 3866.7 59.3L4000 49L4000 201L3866.7 201C3733.3 201 3466.7 201 3200 201C2933.3 201 2666.7 201 2400 201C2133.3 201 1866.7 201 1600 201C1333.3 201 1066.7 201 800 201C533.3 201 266.7 201 133.3 201L0 201Z" fill="#4cd137" stroke-linecap="round" stroke-linejoin="miter"></path></svg>