<svg id="visual" viewBox="0 0 960 100" width="960" height="100" xmlns="http://www.w3.org/2000/svg" xmlns:xlink="http://www.w3.org/1999/xlink" version="1.1"><rect x="0" y="0" width="960" height="100" fill="#4cd137"></rect><path d="M0 62L5.2 59.5C10.3 57 20.7 52 31 46C41.3 40 51.7 33 62 34.5C72.3 36 82.7 46 93 53.2C103.3 60.3 113.7 64.7 124 62.3C134.3 60 144.7 51 155 44.8C165.3 38.7 175.7 35.3 186 39.3C196.3 43.3 206.7 54.7 217 49.5C227.3 44.3 237.7 22.7 248 20.2C258.3 17.7 268.7 34.3 279 39.5C289.3 44.7 299.7 38.3 310 39.8C320.3 41.3 330.7 50.7 341 45.3C351.3 40 361.7 20 372 17.3C382.3 14.7 392.7 29.3 403 33.5C413.3 37.7 423.7 31.3 434 35.5C444.3 39.7 454.7 54.3 464.8 55.7C475 57 485 45 495.2 45.8C505.3 46.7 515.7 60.3 526 55.7C536.3 51 546.7 28 557 20C567.3 12 577.7 19 588 22C598.3 25 608.7 24 619 22.3C629.3 20.7 639.7 18.3 650 25C660.3 31.7 670.7 47.3 681 49.5C691.3 51.7 701.7 40.3 712 37C722.3 33.7 732.7 38.3 743 44C753.3 49.7 763.7 56.3 774 60.3C784.3 64.3 794.7 65.7 805 68.2C815.3 70.7 825.7 74.3 836 66.3C846.3 58.3 856.7 38.7 867 36.8C877.3 35 887.7 51 898 51.2C908.3 51.3 918.7 35.7 929 32.8C939.3 30 949.7 40 954.8 45L960 50L960 0L954.8 0C949.7 0 939.3 0 929 0C918.7 0 908.3 0 898 0C887.7 0 877.3 0 867 0C856.7 0 846.3 0 836 0C825.7 0 815.3 0 805 0C794.7 0 784.3 0 774 0C763.7 0 753.3 0 743 0C732.7 0 722.3 0 712 0C701.7 0 691.3 0 681 0C670.7 0 660.3 0 650 0C639.7 0 629.3 0 619 0C608.7 0 598.3 0 588 0C577.7 0 567.3 0 557 0C546.7 0 536.3 0 526 0C515.7 0 505.3 0 495.2 0C485 0 475 0 464.8 0C454.7 0 444.3 0 434 0C423.7 0 413.3 0 403 0C392.7 0 382.3 0 372 0C361.7 0 351.3 0 341 0C330.7 0 320.3 0 310 0C299.7 0 289.3 0 279 0C268.7 0 258.3 0 248 0C237.7 0 227.3 0 217 0C206.7 0 196.3 0 186 0C175.7 0 165.3 0 155 0C144.7 0 134.3 0 124 0C113.7 0 103.3 0 93 0C82.7 0 72.3 0 62 0C51.7 0 41.3 0 31 0C20.7 0 10.3 0 5.2 0L0 0Z" fill="#f1c40f" stroke-linecap="round" stroke-linejoin="miter"></path></svg>