<svg id="visual" viewBox="0 0 900 100" width="900" height="100" xmlns="http://www.w3.org/2000/svg" xmlns:xlink="http://www.w3.org/1999/xlink" version="1.1"><rect x="0" y="0" width="900" height="100" fill="#FFFFFF"></rect><path d="M0 61L4.8 56.8C9.7 52.7 19.3 44.3 29 42.2C38.7 40 48.3 44 58 43.3C67.7 42.7 77.3 37.3 87 44.2C96.7 51 106.3 70 116 72.2C125.7 74.3 135.3 59.7 145 46.8C154.7 34 164.3 23 174 19.8C183.7 16.7 193.3 21.3 203 33C212.7 44.7 222.3 63.3 232 61.7C241.7 60 251.3 38 261 31.3C270.7 24.7 280.3 33.3 290 34.3C299.7 35.3 309.3 28.7 319 29.3C328.7 30 338.3 38 348 39.8C357.7 41.7 367.3 37.3 377 33.8C386.7 30.3 396.3 27.7 406 34.5C415.7 41.3 425.3 57.7 435.2 56.7C445 55.7 455 37.3 464.8 30.3C474.7 23.3 484.3 27.7 494 36.7C503.7 45.7 513.3 59.3 523 60.7C532.7 62 542.3 51 552 50.8C561.7 50.7 571.3 61.3 581 59.7C590.7 58 600.3 44 610 35.3C619.7 26.7 629.3 23.3 639 26C648.7 28.7 658.3 37.3 668 44.7C677.7 52 687.3 58 697 55.8C706.7 53.7 716.3 43.3 726 42.5C735.7 41.7 745.3 50.3 755 46C764.7 41.7 774.3 24.3 784 29.7C793.7 35 803.3 63 813 67.2C822.7 71.3 832.3 51.7 842 46.2C851.7 40.7 861.3 49.3 871 54.2C880.7 59 890.3 60 895.2 60.5L900 61L900 0L895.2 0C890.3 0 880.7 0 871 0C861.3 0 851.7 0 842 0C832.3 0 822.7 0 813 0C803.3 0 793.7 0 784 0C774.3 0 764.7 0 755 0C745.3 0 735.7 0 726 0C716.3 0 706.7 0 697 0C687.3 0 677.7 0 668 0C658.3 0 648.7 0 639 0C629.3 0 619.7 0 610 0C600.3 0 590.7 0 581 0C571.3 0 561.7 0 552 0C542.3 0 532.7 0 523 0C513.3 0 503.7 0 494 0C484.3 0 474.7 0 464.8 0C455 0 445 0 435.2 0C425.3 0 415.7 0 406 0C396.3 0 386.7 0 377 0C367.3 0 357.7 0 348 0C338.3 0 328.7 0 319 0C309.3 0 299.7 0 290 0C280.3 0 270.7 0 261 0C251.3 0 241.7 0 232 0C222.3 0 212.7 0 203 0C193.3 0 183.7 0 174 0C164.3 0 154.7 0 145 0C135.3 0 125.7 0 116 0C106.3 0 96.7 0 87 0C77.3 0 67.7 0 58 0C48.3 0 38.7 0 29 0C19.3 0 9.7 0 4.8 0L0 0Z" fill="#4285f4" stroke-linecap="round" stroke-linejoin="miter"></path></svg>