<svg id="visual" viewBox="0 0 4000 200" width="4000" height="200" xmlns="http://www.w3.org/2000/svg" xmlns:xlink="http://www.w3.org/1999/xlink" version="1.1"><rect x="0" y="0" width="4000" height="200" fill="#FFF"></rect><path d="M0 10L133.3 10.5C266.7 11 533.3 12 800 37.7C1066.7 63.3 1333.3 113.7 1600 132.5C1866.7 151.3 2133.3 138.7 2400 126.8C2666.7 115 2933.3 104 3200 94C3466.7 84 3733.3 75 3866.7 70.5L4000 66L4000 201L3866.7 201C3733.3 201 3466.7 201 3200 201C2933.3 201 2666.7 201 2400 201C2133.3 201 1866.7 201 1600 201C1333.3 201 1066.7 201 800 201C533.3 201 266.7 201 133.3 201L0 201Z" fill="#743ad5" stroke-linecap="round" stroke-linejoin="miter"></path></svg>