<svg id="visual" viewBox="0 0 960 100" width="960" height="100" xmlns="http://www.w3.org/2000/svg" xmlns:xlink="http://www.w3.org/1999/xlink" version="1.1"><rect x="0" y="0" width="960" height="100" fill="#FFFFFF"></rect><path d="M0 40L5.2 35.3C10.3 30.7 20.7 21.3 31 20.2C41.3 19 51.7 26 62 28.2C72.3 30.3 82.7 27.7 93 30.5C103.3 33.3 113.7 41.7 124 51.3C134.3 61 144.7 72 155 69.3C165.3 66.7 175.7 50.3 186 46.8C196.3 43.3 206.7 52.7 217 56.5C227.3 60.3 237.7 58.7 248 63.7C258.3 68.7 268.7 80.3 279 75.3C289.3 70.3 299.7 48.7 310 37.8C320.3 27 330.7 27 341 29.3C351.3 31.7 361.7 36.3 372 35.5C382.3 34.7 392.7 28.3 403 28.7C413.3 29 423.7 36 434 43.7C444.3 51.3 454.7 59.7 464.8 61.5C475 63.3 485 58.7 495.2 57.3C505.3 56 515.7 58 526 58.5C536.3 59 546.7 58 557 62.3C567.3 66.7 577.7 76.3 588 76.5C598.3 76.7 608.7 67.3 619 66.5C629.3 65.7 639.7 73.3 650 80C660.3 86.7 670.7 92.3 681 82.7C691.3 73 701.7 48 712 34.7C722.3 21.3 732.7 19.7 743 18C753.3 16.3 763.7 14.7 774 25C784.3 35.3 794.7 57.7 805 66.2C815.3 74.7 825.7 69.3 836 61.3C846.3 53.3 856.7 42.7 867 37.3C877.3 32 887.7 32 898 30.2C908.3 28.3 918.7 24.7 929 30.8C939.3 37 949.7 53 954.8 61L960 69L960 101L954.8 101C949.7 101 939.3 101 929 101C918.7 101 908.3 101 898 101C887.7 101 877.3 101 867 101C856.7 101 846.3 101 836 101C825.7 101 815.3 101 805 101C794.7 101 784.3 101 774 101C763.7 101 753.3 101 743 101C732.7 101 722.3 101 712 101C701.7 101 691.3 101 681 101C670.7 101 660.3 101 650 101C639.7 101 629.3 101 619 101C608.7 101 598.3 101 588 101C577.7 101 567.3 101 557 101C546.7 101 536.3 101 526 101C515.7 101 505.3 101 495.2 101C485 101 475 101 464.8 101C454.7 101 444.3 101 434 101C423.7 101 413.3 101 403 101C392.7 101 382.3 101 372 101C361.7 101 351.3 101 341 101C330.7 101 320.3 101 310 101C299.7 101 289.3 101 279 101C268.7 101 258.3 101 248 101C237.7 101 227.3 101 217 101C206.7 101 196.3 101 186 101C175.7 101 165.3 101 155 101C144.7 101 134.3 101 124 101C113.7 101 103.3 101 93 101C82.7 101 72.3 101 62 101C51.7 101 41.3 101 31 101C20.7 101 10.3 101 5.2 101L0 101Z" fill="#743ad5" stroke-linecap="round" stroke-linejoin="miter"></path></svg>